#!OML:ASF F:\VICON\USERDATA\INSTALL\rory3\rory3.ASF
:FULLY-SPECIFIED
:DEGREES
18
root 0.694037706994417 17.84319914953955 -14.123790061245687 2.9069929350915444 3.589519713864088 -3.4879136509652175
lfemur -28.72889410680564 -0.24386298271705018 -21.07890258153214
ltibia 31.414107891916068
lfoot -7.25574496808393 -11.957398246905246
ltoes -0.6683460654972802
rfemur 2.1611506691625237 3.957517817237457 30.316795347314695
rtibia 69.3809934626732
rfoot 15.692489005278253 -8.108772158220354
rtoes 19.062584112511903
lowerback 13.276402061628149 2.611780081602416 3.7234731827735246
upperback -0.41300001637085204 4.140300294691841 1.0607817906109853
thorax -7.710278518970554 1.8838700234589263 -1.7779911064175704
lowerneck -16.86371735863895 -4.543652941028242 -1.3911011053199869
upperneck 7.476160686128129 -6.227492502738151 3.897316593782956
head 5.142304450761011 -2.8061919510821474 0.8709827819980558
lclavicle 4.287489412377644e-15 5.758951719543448e-17
lhumerus -64.65339045518938 -5.906982287359465 97.59979435650042
lradius 108.8610017603091
lwrist 24.68661283897703
lhand -28.936203173919857 2.5027332489669014
lfingers 7.125019999999998
lthumb -2.2901431734617943 32.47020318978507
rclavicle 4.287489412377644e-15 5.758951719543448e-17
rhumerus -34.428808370107106 16.961293800601123 -100.48199597093212
rradius 102.94600307402627
rwrist -8.59922590506068
rhand -23.48038687920422 35.71120750761113
rfingers 7.125019999999998
rthumb 2.979213121218424 5.75226772603878
19
root 0.7226309054523588 17.622502854948753 -13.2302904553817 2.4922653663205976 5.78248437229925 -2.1990881602859464
lfemur -28.52689420758724 -1.9788848835133817 -22.84369980935524
ltibia 38.230204854658425
lfoot -12.400291895785022 -10.703600011417711
ltoes 3.5937395320841095
rfemur -0.7623048302285849 0.3113505170199238 27.701399587780724
rtibia 75.38279086191791
rfoot 12.541991140207234 -7.488023753526203
rtoes 17.641085374260424
lowerback 13.81649949411607 1.5782469940569803 2.9895551027221137
upperback -0.008598535265119 2.632296441850249 0.691274567475478
thorax -7.66999905726461 1.1776667315073668 -1.4822323454005206
lowerneck -17.666311710938366 -4.567352709265919 -1.299712568986423
upperneck 7.545450332758572 -6.258682294773074 3.7532879788153646
head 5.284442484116741 -2.816861796251615 0.7921581633574893
lclavicle 4.287489468395178e-15 5.758949060002059e-17
lhumerus -61.7804923733134 -7.55440830574879 98.65148984184385
lradius 108.70500206564783
lwrist 24.56991335851223
lhand -30.165796736568616 1.3932778390969651
lfingers 7.125019999999998
lthumb -3.4775667354700093 31.344707851528664
rclavicle 4.287489468395178e-15 5.758949060002059e-17
rhumerus -34.99900787057105 16.525695005281758 -101.10699353469758
rradius 101.028007989393
rwrist -7.39156211003324
rhand -24.735079804737744 38.25539658697751
rfingers 7.125019999999998
rthumb 1.767450197523587 8.282996860260551
20
root 0.7189470087216078 17.427306132229564 -12.401790820845205 2.5212451964341227 5.204715779612576 -0.028623054272378212
lfemur -27.85829454116434 -2.310264100589022 -25.269395999025743
ltibia 43.26940260918831
lfoot -16.22748961020081 -6.54256586738115
ltoes 3.328519806036452
rfemur -5.560325367406074 -0.7521579454409268 23.787505933563395
rtibia 81.94048802027501
rfoot 9.092143477990001 -7.080314801326672
rtoes 15.0848876431888
lowerback 15.12469327523197 1.5564171400589566 0.5944173684640891
upperback 0.11119302436430245 2.1678983349015986 -0.02357872575525799
thorax -8.35717987379159 1.021088218807496 -0.8390950396103418
lowerneck -18.834203492710728 -4.437353980536028 -1.255313280079429
upperneck 8.015327936434613 -6.147723034619338 4.070824925262696
head 5.6266077498641085 -2.7121133162608384 0.8690668398803127
lclavicle 4.287489362369983e-15 5.758952954321761e-17
lhumerus -58.011994889394856 -9.592553379821862 99.19088752634916
lradius 108.08500327917359
lwrist 25.44170947735718
lhand -30.214396482131992 0.9719215823666922
lfingers 7.125019999999998
lthumb -3.524506480971357 30.922509600252027
rclavicle 4.287489362369983e-15 5.758952954321761e-17
rhumerus -35.69300726257734 15.239798561523335 -101.50699197550747
rradius 100.21901006266287
rwrist -11.305591999760676
rhand -21.929595623192903 41.452682863000675
rfingers 7.125019999999998
rthumb 4.47677437594306 11.519982962142164
21
root -0.11022654584811364 17.076338918728986 -4.821602069131984 1.3735040868715664 1.9808299773679878 2.4706170985871867
lfemur -20.49239612573235 -0.19396482243089566 -28.829389056332186
ltibia 43.039224374881925
lfoot -19.425271403499604 -2.293549131921621
ltoes 2.976736021635732
rfemur -9.736901374861755 -2.3540853516820377 22.142247653561153
rtibia 86.96332797359891
rfoot 6.985973253113635 -7.093847722797118
rtoes 10.387804171754073
lowerback 15.350402785579274 1.8838109995185015 -1.4167402265328832
upperback 0.12293047131440527 2.1866047054438864 -0.3473198980815728
thorax -8.454507500880013 1.2411154691810902 -0.042537744653086074
lowerneck -19.751772313574097 -4.553031395786806 -1.581122325551659
upperneck 8.853627296022243 -6.001379571833291 4.200167990687046
head 6.217425064083019 -2.748985726098588 1.0021302807457209
lclavicle 4.287488207720547e-15 5.758861652139473e-17
lhumerus -51.02106310379333 -12.767765635168404 97.76626243356284
lradius 107.07037568431761
lwrist 26.532415286909067
lhand -28.565004519162443 1.9707276550653887
lfingers 7.125019999999998
lthumb -2.0625159669717097 31.733067860297115
rclavicle 4.287527000277237e-15 5.76164620640579e-17
rhumerus -38.95050905173612 15.509609747773311 -101.9366879219584
rradius 97.88190774072066
rwrist -12.006509198364144
rhand -21.898662661492782 40.11987695182813
rfingers 7.125019999999998
rthumb 4.709517272291664 9.499160650038034
22
root -0.15665332953973204 16.89759702391075 -5.725742963252252 2.215261434270782 1.5900257477995798 2.8217177966937643
lfemur -17.322962255133508 0.025906071600969305 -29.572150955273397
ltibia 40.88588761441816
lfoot -21.92542934849757 -0.013715648312677686
ltoes 2.5953875557311186
rfemur -15.321789439486219 -3.2516923065537764 19.360128719064406
rtibia 90.77822286270256
rfoot 5.535576245026639 -6.701626683070834
rtoes 10.736529381052076
lowerback 15.586393867958963 1.8578804594193228 -2.5274285899919136
upperback 0.10820171241559984 2.023191855322135 -0.5286076804075064
thorax -8.673861756676219 1.0847581984854817 0.25231583713717187
lowerneck -19.94236947450997 -4.338728774717985 -1.5499643207015854
upperneck 8.890372298094384 -5.906080021923005 4.189692809941256
head 6.352438685076962 -2.7536454609539027 1.0080233505361011
lclavicle 4.287488207718824e-15 5.758861652015781e-17
lhumerus -44.973795191500415 -14.51363755030684 96.67026153896315
lradius 106.07472491983006
lwrist 26.96186462951171
lhand -28.234144566052745 1.7118739040520645
lfingers 7.125019999999998
lthumb -1.735852162720941 31.50289708252427
rclavicle 4.28752700033789e-15 5.761646210759487e-17
rhumerus -40.475036041284 15.287266800307659 -102.27958970939608
rradius 96.64628126509794
rwrist -11.043065248473022
rhand -21.735490890321014 38.54955889608469
rfingers 7.125019999999998
rthumb 4.6515134336437525 8.042360397407915
23
root -0.14207642994745628 16.8549265125872 -4.940804958981616 2.8455399861132435 1.218509092396443 2.5352973235985634
lfemur -12.760832739514717 -0.11160492841439598 -28.84931302841963
ltibia 39.531533010690964
lfoot -23.458852597037154 0.7979102905294724
ltoes 2.9295640145750728
rfemur -21.2900751364743 -3.8313583526778805 17.47725482880823
rtibia 92.84149535553205
rfoot 4.813902153200914 -5.805268661603424
rtoes 9.95376252290251
lowerback 15.680351934447026 1.631987138681581 -3.1378574184391823
upperback 0.04851522947563802 1.578319229665019 -0.5517793315478146
thorax -8.684189026882768 0.8996569800293377 0.5820303445900146
lowerneck -20.184337261516923 -4.226898473303475 -1.6156207232427646
upperneck 9.01771608367124 -5.572074170418181 4.183069493409608
head 6.34657520317136 -2.6776934751289403 1.0697312172674096
lclavicle 4.287488207720418e-15 5.758861652130192e-17
lhumerus -40.5542151830179 -15.123044225536656 95.80881251393575
lradius 105.28828886666197
lwrist 27.21763970611617
lhand -28.083113914852554 1.3413186642749704
lfingers 7.125019999999998
lthumb -1.941225379717483 30.719647278584937
rclavicle 4.287527000372475e-15 5.761646213242026e-17
rhumerus -42.24032949520469 15.017965025445704 -102.66575586315861
rradius 96.80314353185267
rwrist -10.05144253734417
rhand -21.454096697713933 37.610246507119776
rfingers 7.125019999999998
rthumb 4.633401256534293 6.896155533027519
24
root -0.10925008325090513 16.908572172129087 -3.5129640089872627 3.5035519130275823 1.076970076705877 2.092945527208982
lfemur -9.490941779306045 -0.9295361981169065 -29.010707372617873
ltibia 38.235259917543594
lfoot -22.818486383564455 0.6026023833887173
ltoes 2.2499245254474136
rfemur -26.26648535784403 -4.258532184763035 17.002459818508385
rtibia 93.05003434976567
rfoot 3.3498622311597277 -4.88932139499627
rtoes 7.90180248637723
lowerback 15.52076450747246 1.3024294970337655 -3.249527158217279
upperback -0.022027396108308395 1.1148695874560373 -0.4440923405550705
thorax -8.658794738667456 0.6758984090354219 0.840337398657778
lowerneck -20.20756841851396 -3.953078812046857 -1.5917705128965778
upperneck 9.28187352198788 -5.2042621698994465 3.974879657716088
head 6.36160532462153 -2.5776247050112957 1.0228713266444858
lclavicle 4.287488207726434e-15 5.758861652562033e-17
lhumerus -37.05159904015643 -14.66312165106595 95.22153181514489
lradius 104.90305418687254
lwrist 27.467164822484474
lhand -28.204696237539633 1.4875916445520323
lfingers 7.125019999999998
lthumb -1.9225968654893733 31.108657348828626
rclavicle 4.28752700045355e-15 5.761646219061658e-17
rhumerus -43.790160224386014 14.674351118321765 -102.83810461289742
rradius 97.73883357912688
rwrist -9.272560780094665
rhand -20.945474009918705 37.61471713948683
rfingers 7.125019999999998
rthumb 5.1492713973173645 6.734080077818677
